<?xml version="1.0" encoding="utf-8"?>
<!-- Generator: Adobe Illustrator 19.0.0, SVG Export Plug-In . SVG Version: 6.00 Build 0)  -->
<svg version="1.1" id="圖層_1" xmlns="http://www.w3.org/2000/svg" xmlns:xlink="http://www.w3.org/1999/xlink" x="0px" y="0px"
	 viewBox="0 0 1240.7 509" style="enable-background:new 0 0 1240.7 509;" xml:space="preserve">
<style type="text/css">
	.st0{fill:#1F4396;}
</style>
<path id="XMLID_131_" class="st0" d="M332.7,173c-3.9,15.1-7.8,30.1-11.6,45.2c-4,15.6-7.8,31.3-11.8,47c-4,15.8-8.1,31.5-12.1,47.3
	c-3.6,14.1-7.2,28.3-10.6,42.5c-0.7,2.9-1.8,4.1-4.8,4c-8.8-0.2-17.7-0.1-26.5-0.1c-1.9,0-2.8-0.6-3.3-2.6
	c-2.8-12.5-5.7-25-8.6-37.5c-4.3-17.9-8.6-35.8-12.9-53.7c-0.6-2.4-1.2-4.7-2.6-7.1c-0.4,1.5-0.9,3-1.3,4.5
	c-4.9,20.3-9.8,40.6-14.7,61c-2.5,10.4-4.9,20.8-7.3,31.2c-0.7,2.8-1.6,4.4-4.9,4.3c-8.7-0.3-17.5-0.2-26.2-0.1c-2,0-3-0.5-3.5-2.8
	c-2.4-10.5-4.9-21.1-7.4-31.6c-3.1-12.7-6.2-25.4-9.3-38.1c-3.2-13.2-6.2-26.3-9.4-39.5c-4.1-17-8.2-34-12.4-50.9
	c-1.6-6.7-3.3-13.4-4.9-20.1c-0.2-0.9-0.3-1.8-0.5-3.3c1.5,0,2.8,0,4.1,0c14.2,0,28.4,0.1,42.6,0c2.5,0,3.6,0.8,4.1,3.3
	c2.9,12.6,5.9,25.2,8.8,37.8c4.2,17.9,8.3,35.9,12.5,53.8c1.3,5.8,2.7,11.5,4.7,17.5c0.4-1,0.8-1.9,1.1-2.9
	c5.6-23.7,11.1-47.4,16.6-71.1c2.7-11.6,5.3-23.1,7.9-34.7c0.6-2.5,1.4-3.7,4.2-3.6c7.7,0.2,15.4,0.2,23.2,0c2.4,0,3.3,0.9,3.8,3.3
	c3.3,15.1,6.7,30.1,10.2,45.2c3.6,15.6,7.2,31.3,10.8,46.9c1.1,5,2.2,10,3.4,15c0.2,0.7,0.7,1.4,1.5,2.9c1.7-6.8,3.2-12.7,4.6-18.6
	c4.1-16.7,8.2-33.4,12.3-50.2c3.2-13,6.2-26.1,9.6-39.1c1.1-4.2-1.4-6.3-3.3-8.7c-16.5-21.2-36.9-36.1-61.6-44.2
	c-15.1-4.9-30.7-7-46.3-5.4c-23.4,2.3-45,10.5-64.1,25.6c-19.8,15.6-34.3,35.6-43.4,60.1c-7.2,19.4-10,39.7-8.3,60.4
	c1.9,22.8,8.6,44,20.6,63.2c13.1,20.8,29.9,37,51.2,47.3c9.1,4.4,18.8,7.1,28.4,10.2c11.7,3.7,23.9,3.4,35.9,2.6
	c13.8-1,27.2-4.8,39.9-10.8c11.5-5.4,22.2-12.4,31.7-21.2c14.5-13.4,25.8-29.3,33.4-48.1c5.2-12.8,8.7-26,10-39.9
	c0.2-2.6,0.7-5.1,1.1-8.1c4.4,0,9.1-0.1,13.7,0.1c0.6,0,1.7,1.9,1.6,2.8c-2.4,30.8-11.7,58.8-29.4,83.4
	c-12.4,17.3-27.6,31-45.5,41.2c-18.2,10.4-37.7,16.3-58.3,17.7c-25.6,1.7-49.9-3.8-72.7-16.2c-29.5-16-51-40.2-64.9-72.3
	c-10.4-24.1-14.7-49.5-12.5-75.9c2.9-35.2,15.7-66,38.5-91.8c19.5-22.1,43.2-36.5,70.8-43.4c19.2-4.8,38.4-5.5,57.9-1.4
	c35.5,7.5,64.4,26.3,86.7,56.7c1.9,2.5,3.6,5.2,5.3,7.9c0.9,1.5,1.5,3.3,2.2,4.9C331.7,174,332.2,173.5,332.7,173z"/>
<path id="XMLID_130_" class="st0" d="M533.5,274.5c0-31.3,0-62.7,0-94.2c4.4,0,8.5,0,12.6,0c-0.1,0.2-0.3,0.5-0.4,0.7
	c1.2,0.9,2.5,1.7,3.6,2.7c0.6,0.5,1.3,1.3,1.5,2c0.3,1,0.1,2.1,0.1,3.2c0,44.9,0,89.8,0,134.7c0,4.7-0.3,5-4.8,5
	c-6.8,0-13.7,0.1-20.5-0.1c-4.6-0.1-8.5-2.3-11-6.4c-15.8-25.6-31.6-51.3-47.3-76.9c-0.8-1.4-1.8-2.6-3.1-4.4
	c-0.2,1.2-0.4,1.7-0.4,2.2c0,26.8,0.1,53.7,0.1,80.5c0,4.8-0.3,5.2-4.8,5c-2.9-0.1-6.2,1.2-8.4-2.6c-0.4-0.8-2.5-0.5-4-0.8
	c0-48.3,0-96.5,0-145.2c6,0,12,0.4,18-0.1c6.6-0.6,10.8,3,14.1,8.3c17.7,28.4,35.2,56.9,52.8,85.3c0.3,0.5,0.7,0.8,1,1.2
	C532.9,274.7,533.2,274.6,533.5,274.5z"/>
<path id="XMLID_129_" class="st0" d="M988.5,273.6c0,1.7,0,2.9,0,4c4.5,0.4,4.5,0.4,3.7,5.5c-1.3,7.8-1.3,15.5,1.5,23
	c1.5,3.9,3.8,6.7,7.4,8.2c8.6,3.5,17.4,3.8,26.3,1.2c7.2-2.1,11.3-7.2,12.4-15.1c1.1-7.5-2-13.4-7.6-17.1
	c-6.2-4.1-12.9-7.4-19.7-10.6c-12-5.6-23.4-12-31.9-23c-12-15.5-12.8-41.4,0.3-56.5c6.4-7.4,14.3-11.7,23.3-14
	c11.6-2.9,23.3-2.9,34.8,0.8c16.8,5.4,29.4,18.3,30.2,39.2c0.1,3-0.9,4.4-3.6,4.9c-3.1,0.5-6.2,1.1-9.3,1.7
	c-3.3,0.6-3.3,0.6-4.7-2.7c-0.6,0-1.3,0-1.9,0c-0.7,0-1.3,0.1-2.5,0.2c0.2-2.2,0.6-4.1,0.4-6.1c-0.5-5.2-0.6-10.5-2.1-15.4
	c-1.5-4.9-5.4-8.2-10.4-9.2c-7.4-1.6-14.9-1.8-22.3,0.2c-9.8,2.7-14.7,12-11.6,21.7c1.5,4.5,4.8,7.3,8.6,9.1
	c7.6,3.6,15.5,6.8,23.2,10.2c12.7,5.7,23.8,13.8,32.9,24.8c14.7,17.8,13.9,55.1-16.3,67.6c-21.7,9-43.5,7.1-63.8-6
	c-9.2-6-14.2-15.1-15.4-26.4c-0.5-4.6-0.2-9.3-0.1-13.9c0-0.8,0.6-2,1.2-2.2C977.1,276.2,982.6,275,988.5,273.6z"/>
<path id="XMLID_128_" class="st0" d="M869.6,325.2c0-48.3,0-96.5,0-144.9c29.2,0,58.1,0,87.1,0c-0.1,0.2-0.2,0.4-0.3,0.6
	c1.4,0.9,2.8,1.9,4.2,2.9c3.3,2.5,1.3,6.1,1.6,9.2c0.1,1.3-0.9,3-1.8,4c-0.5,0.6-1.9,0.2-2.9,0.2c-13.1,0-26.2,0-39.3,0
	c-4.7,0-5.2,0.6-5.2,5.6c0,10.7,0.1,21.3,0,32c0,3.2,1,4.2,3.8,4.2c10.8-0.1,21.7,0,32.2,0.8c1.2,0.9,2.8,1.7,3.7,2.9
	c0.9,1.2,1.8,3,1.7,4.5c-0.2,2.9,1.5,6.4-1.5,8.6c-0.8,0.6-2.2,0.3-3.3,0.3c-10.5,0-21,0-31.6,0c-4.4,0-5,0.7-5,5.5
	c0,15.5,0,30.9-0.1,46.4c0,3.1,1,3.9,3.7,3.9c15.2-0.1,30.4,0,45.6,0c1.7,0,3.8-0.6,3.9,2.4c0,0.3,0.4,0.6,0.6,0.8
	c1.1,0.7,3.2,1.3,3.3,2.2c0.4,3.3,0.3,6.7,0,10c-0.1,0.7-1.9,1.5-2.9,1.6c-3.2,0.2-6.5,0.1-9.7,0.1c-25.7,0-51.5,0-77.2,0
	c-2.2,0-4.6,0.7-6.1-2.4C873.6,325.5,871.2,325.6,869.6,325.2z"/>
<path id="XMLID_127_" class="st0" d="M745.6,192.8c0-4,0-8.3,0-12.7c36.1,0,72,0,106.7,0c2.1,1.6,3.6,2.3,4.6,3.6
	c0.9,1.1,1.6,2.8,1.6,4.2c-0.1,2.9-0.7,5.9-1.4,8.8c-0.1,0.3-1.9,0.3-2.9,0.3c-7.9,0-15.9,0-23.8,0c-4.8,0-5.1,0.4-5.1,5.6
	c0,39.9,0,79.8,0,119.7c0,6.3,0,6.3-5.7,6.3c-10.4,0-20.8,0.1-31.2-0.1c-1.4,0-2.8-1.3-4.2-1.9c-1.5-0.6-3-1.1-5-1.8
	c0-1,0-2.1,0-3.3c0-39.8,0-79.5,0-119.3c0-5.2,0-5.2-4.8-5.2c-6.7,0-13.4,0.1-20.1-0.1c-1.3,0-2.6-1.3-3.9-1.9
	C749,194.3,747.5,193.7,745.6,192.8z"/>
<path id="XMLID_126_" class="st0" d="M577.8,180c12.8,0,25.4,0,37.9,0c-0.1,0.2-0.2,0.4-0.3,0.6c1.5,1,3,1.9,4.4,3
	c0.6,0.5,1.2,1.4,1.4,2.2c0.2,1,0.1,2.1,0.1,3.2c0,39.4,0,78.8-0.1,118.2c0,3.4,1.1,4.3,4.1,4.3c14.6-0.1,29.3-0.1,44-0.1
	c1.7,0,3.8-0.6,3.8,2.4c0,0.3,0.6,0.7,0.9,0.9c1.1,0.8,3.1,1.4,3.2,2.2c0.2,3.4,0.1,6.9-0.5,10.3c-0.1,0.6-2.7,1.1-4.2,1.1
	c-19.9,0.1-39.8,0-59.7,0c-8.5,0-17,0.1-25.5-0.1c-1.5,0-2.9-1.4-4.5-2c-1.5-0.6-3.1-1-4.9-1.6C577.8,276.9,577.8,228.7,577.8,180z"
	/>
<path id="XMLID_125_" class="st0" d="M375.7,324.9c0-48.1,0-96.3,0-144.8c12.8,0,25.5,0,38.2,0c-0.1,0.2-0.2,0.4-0.4,0.6
	c1.3,0.9,2.6,1.7,3.8,2.8c0.7,0.6,1.4,1.5,1.6,2.4c0.3,1.1,0.1,2.4,0.1,3.6c0,44.7,0,89.3,0,134c0,4.9-0.1,5.1-4.7,5.1
	c-9.7,0-19.5,0-29.2,0c-1.9,0-3.6,0.2-4.8-2.2C379.8,325.3,377.4,325.4,375.7,324.9z"/>
<path id="XMLID_124_" class="st0" d="M725.5,180.8c1.2,0.9,2.5,1.6,3.5,2.7c0.8,0.8,1.6,2,1.7,3.1c0.3,2.4,0.1,4.8,0.1,7.2
	c0,43.1,0,86.2,0,129.3c0,5.3-0.1,5.4-5.1,5.4c-9.6,0-19.2,0.1-28.9-0.1c-1.5,0-3-1.3-4.5-2c-0.4-0.2-0.7-0.8-1.1-0.7
	c-4.3,0.4-3.7-2.7-3.7-5.6c0-44.4,0-88.8,0-133.3c0-2.1,0-4.3,0-6.7c12.8,0,25.4,0,38,0C725.5,180.3,725.5,180.6,725.5,180.8z"/>
<path id="XMLID_123_" class="st0" d="M811.3,385.2c0.1-1.5,0.4-3,0.4-4.5c0-8.7,0-17.5,0-26.2c0-1.5-0.2-3.4,2-3.4
	c1.6,0,3.5-0.6,3.8,2.2c0.1,0.7,1.2,1.8,1.9,1.8c2.9,0.1,3.2,2,3.2,4.4c0,13.9,0,27.8-0.1,41.6c0,1.6-0.9,4.2-1.8,4.4
	c-1.9,0.4-4.1-0.2-5.9-1c-8.8-4-10.5-13.8-14.9-21.4c-2-3.5-3.7-7.1-5.5-10.6c-0.3-0.7-0.9-1.2-2-2.5c0,3.6,0,6.1,0,8.7
	c0,7.8,0.1,15.6-0.1,23.3c0,1.4-1.2,2.7-1.8,4.1c-1.2-0.8-2.3-1.7-3.5-2.3c-1.6-0.8-3.3-1.4-5.3-2.2c0-2.4,0-5.2,0-7.9
	c0-12.4-0.1-24.9,0.1-37.3c0-1.7,0.6-4.7,1.3-4.8c2.7-0.6,5.4-0.9,8.1,1.3c9,7,11.5,18.4,17,27.7c0.9,1.5,1.5,3.1,2.3,4.6
	C810.7,385.3,811,385.3,811.3,385.2z"/>
<path id="XMLID_122_" class="st0" d="M880.2,383.9c-2.8-0.7-6.1,1-6.9-3.4c-0.1-0.3-2-0.1-2.8-0.6c-1-0.6-1.6-1.7-2.4-2.6
	c0.9-0.8,1.7-2.2,2.6-2.3c4.2-0.3,8.5-0.3,12.7,0c1.1,0.1,2.2,1.4,3.2,2.3c0.6,0.5,1.1,1.6,1.7,1.6c2.6,0.2,3.1,1.8,3.1,4.1
	c0,5.4-0.1,10.8,0,16.2c0,2.8-1.2,4.4-3.6,5.4c-10.1,4-19,2-28.4-3.6c-14.5-8.6-14.9-33.7-4.6-43.9c8.4-8.3,23.5-8.7,32.1-0.4
	c0.9,0.9,2.4,1.2,3,2.1c0.7,1.1,0.8,2.7,1.1,4.1c-1.1-0.1-2.2,0-3.3-0.2c-3.7-1-7.4-2.7-11.2-2.9c-7.9-0.4-14,4.6-16.4,12.6
	c-2.1,6.8-1.7,13.5,1.1,20c2,4.6,8.4,6.7,14.4,5c3.3-0.9,5.1-2.4,4.5-6.4C879.9,388.6,880.2,386.2,880.2,383.9z"/>
<path id="XMLID_121_" class="st0" d="M591.6,391.2c0,1.9,0,3.8,0,5.7c0,5.6-0.5,6.1-5.3,8.1c-15.8,6.3-35.5-6.1-37.8-20.4
	c-2.3-14,1-27.7,13.8-32.4c8.7-3.2,17.6-3.3,25,4.2c0.9,0.9,2.3,1.2,3,2.2c0.7,1,0.7,2.6,1,3.9c-1.1,0-2.2,0.2-3.2-0.1
	c-3.2-0.9-6.3-2.6-9.5-3c-9.4-1-16.5,4.7-18.7,14.6c-1.4,6.1-0.7,12.1,1.6,17.9c1.3,3.4,4.1,5,7.1,5.2c3.4,0.2,6.8-0.5,10.2-1.3
	c0.9-0.2,1.7-1.9,2-3.1c0.3-1.6,0-3.3,0.1-5c0.3-3.2-0.3-5.3-4-4.4c-0.2,0.1-0.5,0.1-0.7-0.1c-2.4-1.7-4.3-4.2-7.6-4.4
	c-0.2,0-0.5-2-0.3-2.9c0.1-0.5,1.1-1.3,1.6-1.3c4.8-0.1,9.6-0.1,14.4,0c0.6,0,1.7,0.5,1.7,0.8c0,4.2,7,2.7,5.7,8.2
	C591.1,386,591.6,388.7,591.6,391.2C591.6,391.2,591.6,391.2,591.6,391.2z"/>
<path id="XMLID_120_" class="st0" d="M647,351.5c1.8-0.1,3.3-0.2,5-0.4c0.2,2.9,1.2,4.6,4.1,4.5c0.5,0,1.6,1.7,1.6,2.7
	c0.1,15,0.1,29.9,0,44.9c0,1.1-1.1,2.7-2.1,3c-0.8,0.2-2-1.1-3.1-1.6c-1.6-0.9-3.3-1.7-5.5-2.9c0-4.6-0.1-10,0-15.3
	c0.1-3-0.7-4.3-3.8-4.1c-3.3,0.3-6.7,0.1-10.1,0c-2.7-0.1-3.9,1.3-3.8,4.1c0,5.4,0.1,10.8-0.1,16.1c-0.1,1.3-1.2,2.5-1.8,3.7
	c-1.2-0.7-2.3-1.5-3.6-2.2c-1.6-0.8-3.3-1.5-5.2-2.4c0-0.3-0.2-0.9-0.2-1.6c0-15.3,0-30.6,0.1-45.9c0-1,1-2.7,1.8-2.9
	c1.4-0.3,3.4-1,3.9,1.9c0.1,0.8,1.3,1.9,2.1,2c2.4,0.2,3,1.7,3,3.9c0,3.6,0.1,7.2,0,10.8c-0.1,2.5,0.9,3.4,3.2,3.4
	c3.9-0.1,7.8-0.1,11.7,0c2.3,0.1,2.9-1,2.8-3.2C646.9,364,647,357.9,647,351.5z"/>
<path id="XMLID_119_" class="st0" d="M674.9,355.9c-0.6-4.6-0.5-4.6,3.5-4.6c9.5,0,19,0,28.5-0.1c1.7,0,3,0.1,3.3,2.4
	c0.1,0.7,1.6,1.1,2.4,1.7c0.8,0.7,1.5,1.7,2.3,2.5c-0.9,0.7-1.7,2-2.6,2.1c-2.4,0.3-4.9,0-7.4,0.1c-4,0.1-4.7,0.9-4.7,5.1
	c0,12.2,0,24.4-0.1,36.6c0,1.4-1.1,2.8-1.7,4.1c-1.2-0.7-2.5-1.4-3.6-2.1c-0.4-0.2-0.6-1-0.8-1c-6.3,0.2-4.4-4.9-4.4-8.3
	c-0.1-10.1-0.1-20.1,0-30.2c0-3.2-0.9-4.6-4.1-4.3c-2.4,0.2-4.8,0.5-6-3C679.1,356.4,676.6,356.4,674.9,355.9z"/>
<path id="XMLID_118_" class="st0" d="M481.5,398.4c1.2,1,2.5,2,3.7,3.1c0.8,0.7,1.4,1.5,2.2,2.3c-0.8,0.8-1.6,2.2-2.5,2.3
	c-2.3,0.3-4.7,0.2-7,0.2c-3.1,0-6.3,0-9.4,0c-2.2,0-4.3,0.2-5.2-2.7c-0.2-0.5-1.3-1.1-1.9-1.1c-3.3,0.2-3.6-1.9-3.5-4.6
	c0.1-14.1,0-28.2,0.1-42.3c0-1.8-0.9-4.4,2.2-4.6c2.5-0.2,4.7,0.2,3.9,4c4.4-0.5,4.9,2,4.9,5.5c-0.1,10.6-0.1,21.3,0,31.9
	c0,4.9,0,4.9,4.7,4.9c2.8,0,5.6,0,8.3,0C481.8,397.8,481.6,398.1,481.5,398.4z"/>
<path id="XMLID_117_" class="st0" d="M516.9,355.2c3.8-0.7,4.5,1.4,4.5,4.8c-0.1,13.9,0,27.8-0.1,41.7c0,1.5-0.8,3.7-1.9,4.3
	c-1.7,1-3.1-0.2-3.6-2.4c-0.1-0.5-1.3-0.9-2-0.9c-3.3,0.2-3.5-2-3.5-4.6c0-12.2,0-24.4,0-36.7c0-2.4,0-4.8,0-7.2
	c0-1.7,0.2-3.4,2.5-3.3c2,0,3.6,0.2,3.7,2.9C516.4,354.2,516.7,354.5,516.9,355.2z"/>
<path id="XMLID_116_" class="st0" d="M749.8,381.2c0,7.1,0.1,14.1-0.1,21.2c0,1.4-1.2,2.7-1.8,4.1c-1.2-0.7-2.4-1.5-3.6-2.2
	c-0.9-0.5-1.9-1.1-2.9-1.2c-2-0.2-2.6-1-2.6-3.2c0.1-15.2,0.1-30.4,0-45.6c0-1.6,0.1-3,2-2.9c1.5,0.1,3.4-0.8,4,1.9
	c0.2,0.9,1.2,2.1,1.9,2.1c2.5,0.1,2.9,1.7,2.9,3.8C749.8,366.6,749.8,373.9,749.8,381.2C749.8,381.2,749.8,381.2,749.8,381.2z"/>
<path id="XMLID_113_" class="st0" d="M1149.5,147.7c-0.8,12.7-8.4,22.9-21.5,23c-12.1,0.1-21.4-9.1-21.5-22.7
	c-0.1-12.8,8-22.8,21.3-23.1C1140,124.7,1148.4,134,1149.5,147.7z M1127.9,128.6c-10.2,0-18.1,8.4-18.1,19.2
	c0,10.7,8.1,19.3,18.1,19.3c10.1,0,17.9-8.5,17.9-19.4C1145.7,137,1137.8,128.6,1127.9,128.6z"/>
<path id="XMLID_107_" class="st0" d="M1131.5,148.4c1.7,3.9,3.4,7.7,5.2,11.6c-2.9,1.4-4.6,1.3-5.6-1.8c-0.5-1.6-1.3-3-1.8-4.6
	c-1-2.8-2.7-4-6-3.1c0,2.6,0.2,5.3-0.1,8c-0.1,0.9-1.3,2.2-2,2.2c-0.7,0-2.1-1.3-2.1-2.1c-0.2-7.1,0-14.1-0.1-21.2
	c0-2.3,1-2.9,2.9-2.8c1.8,0.1,3.6,0,5.4,0.1c4.3,0.1,6.9,1.9,7.8,5.3C1136,143.5,1134.9,146,1131.5,148.4z M1123.6,147.3
	c2.7-1.2,4.9-1.9,6.6-3.1c0.5-0.4,0.4-3.4-0.2-3.7c-1.9-1.1-4.1-1.5-6.5-2.3C1123.6,141.4,1123.6,143.6,1123.6,147.3z"/>
</svg>
